<?xml version="1.0" encoding="UTF-8"?>
<svg version="1.1" xmlns="http://www.w3.org/2000/svg" width="1076" height="442">
<path d="M0 0 C355.08 0 710.16 0 1076 0 C1076 145.86 1076 291.72 1076 442 C720.92 442 365.84 442 0 442 C0 296.14 0 150.28 0 0 Z " fill="#FEFEFE" transform="translate(0,0)"/>
<path d="M0 0 C0.73533616 -0.00367669 1.47067232 -0.00735338 2.22829139 -0.01114148 C4.69931026 -0.02217942 7.17028707 -0.02602237 9.6413269 -0.02983093 C11.41039666 -0.03609559 13.17946511 -0.0427424 14.9485321 -0.04974365 C20.76522911 -0.07078935 26.5819264 -0.08114776 32.39865112 -0.09111023 C34.40158985 -0.09515785 36.40452844 -0.09927477 38.40746689 -0.10346031 C47.81916206 -0.12251454 57.23084937 -0.13674406 66.64256012 -0.14507228 C77.50210944 -0.15484048 88.3614547 -0.18114816 99.22093213 -0.22157317 C107.61681926 -0.25175311 116.01264797 -0.26654302 124.40858829 -0.26985329 C129.42181821 -0.272202 134.43483019 -0.2811389 139.44800186 -0.30631447 C144.16763674 -0.32963243 148.88691077 -0.33381343 153.60658836 -0.32355309 C155.33470931 -0.32305849 157.06284824 -0.32935638 158.79091454 -0.34310913 C177.4360779 -0.48313981 177.4360779 -0.48313981 184.98458862 5.99873352 C185.42802612 6.5839679 185.87146362 7.16920227 186.32833862 7.77217102 C186.79240112 8.36256165 187.25646362 8.95295227 187.73458862 9.56123352 C189.96887679 12.80095136 189.95990429 15.00069391 189.97550964 18.91453552 C189.9862426 20.75663857 189.9862426 20.75663857 189.99719238 22.63595581 C190.00003282 24.00444006 190.00274453 25.37292457 190.00534058 26.7414093 C190.01160447 28.17698329 190.0182512 29.61255565 190.0252533 31.04812622 C190.04631137 35.7712338 190.05665977 40.49434176 190.06661987 45.21748352 C190.07066728 46.8437133 190.0747842 48.4699429 190.07896996 50.09617233 C190.09802831 57.73893838 190.11225594 65.38169474 190.12058192 73.02447999 C190.13034631 81.84199241 190.15664208 90.65925325 190.19708282 99.47667706 C190.22727379 106.29377329 190.24205377 113.11079755 190.24536294 119.92795932 C190.24771077 123.99830648 190.25663554 128.06838509 190.28182411 132.13866043 C190.30516111 135.97186551 190.30931573 139.80462634 190.29906273 143.63788414 C190.29856856 145.04069054 190.304854 146.44351921 190.31861877 147.84625816 C190.40033962 156.67208424 190.30239779 163.27384897 184.18969631 169.93204498 C176.96098295 175.98397014 167.8158756 174.97526803 158.93527222 174.89179993 C157.12265692 174.89666133 155.310047 174.90410537 153.49745178 174.91392517 C148.59448974 174.93267254 143.69233113 174.91395468 138.78943205 174.88726091 C133.65043294 174.86456256 128.51147138 174.87285209 123.37243652 174.87675476 C114.74595066 174.87851822 106.11977987 174.85640846 97.49337769 174.8195343 C87.52698623 174.77717561 77.56105571 174.77018632 67.59459245 174.78265822 C57.99490117 174.79405495 48.39537182 174.7827449 38.79570389 174.76031113 C34.71530786 174.75103432 30.63501109 174.7492648 26.55460739 174.75348282 C21.74945308 174.75725559 16.94476664 174.74098815 12.13971901 174.70936203 C10.37853366 174.70089222 8.61730078 174.6991646 6.8561039 174.70474243 C4.44785057 174.71121142 2.04098427 174.69296455 -0.36712646 174.66856384 C-1.06042293 174.67612249 -1.7537194 174.68368114 -2.46802485 174.69146883 C-8.37925971 174.58584794 -12.49054195 172.54606735 -16.87869263 168.61982727 C-20.89541476 163.49602272 -22.41716603 159.58999134 -22.44581604 153.0949707 C-22.45579117 151.87960632 -22.4657663 150.66424194 -22.4760437 149.41204834 C-22.4769394 148.07334913 -22.47760302 146.73464975 -22.47805786 145.39595032 C-22.48568327 143.97963526 -22.49411142 142.56332433 -22.50328064 141.14701843 C-22.52519539 137.30598273 -22.53402048 133.46502662 -22.53910708 129.62393546 C-22.54275433 127.22191475 -22.54899631 124.81991478 -22.55610847 122.41790199 C-22.58059277 114.03150647 -22.59365259 105.64517271 -22.59719849 97.25874329 C-22.60083267 89.45209126 -22.63072198 81.64583263 -22.67260307 73.83930081 C-22.70733948 67.12828884 -22.72274751 60.41740704 -22.72344452 53.7063058 C-22.72423622 49.70190382 -22.73292497 45.69790275 -22.76144218 41.69359398 C-22.78768069 37.92509369 -22.78979658 34.15732507 -22.77378654 30.38877487 C-22.77111701 28.35542949 -22.79311632 26.32209799 -22.815979 24.28887939 C-22.75808802 17.03253269 -22.24385811 11.62144509 -17.17166138 6.14717102 C-11.68429828 1.35298788 -7.1380518 -0.00190893 0 0 Z " fill="#010101" transform="translate(160.17166137695313,136.8528289794922)"/>
<path d="M0 0 C8.58 0 17.16 0 26 0 C26 32.01 26 64.02 26 97 C34.58 97 43.16 97 52 97 C52 64.99 52 32.98 52 0 C59.26 0 66.52 0 74 0 C74.09262789 23.33088571 74.16399487 46.66172708 74.20724869 69.9927597 C74.22786673 80.82596601 74.25597294 91.65905591 74.30175781 102.4921875 C74.34164866 111.93524584 74.36743832 121.37821986 74.37635398 130.82136011 C74.38156489 135.82064407 74.39379681 140.81968684 74.42292023 145.81889343 C74.45012477 150.52697813 74.45843479 155.23472289 74.45243073 159.94287872 C74.45352871 161.66819864 74.46145256 163.39353024 74.4768219 165.11878204 C74.62902634 183.0897623 74.62902634 183.0897623 68.58795547 189.49782562 C63.92119115 193.71095958 59.58072232 195.25554355 53.38354492 195.22705078 C52.28278122 195.22689972 51.18201752 195.22674866 50.04789734 195.22659302 C48.28202019 195.21110916 48.28202019 195.21110916 46.48046875 195.1953125 C45.26676102 195.1924826 44.05305328 195.18965271 42.80256653 195.18673706 C38.93077689 195.17555308 35.05921959 195.1504513 31.1875 195.125 C28.56055022 195.11496792 25.93359681 195.10584246 23.30664062 195.09765625 C16.87093248 195.07732226 10.43572596 195.03816905 4 195 C4 186.42 4 177.84 4 169 C19.84 169 35.68 169 52 169 C52 153.82 52 138.64 52 123 C40.79635773 123.15778582 40.79635773 123.15778582 29.59350586 123.36035156 C28.17563082 123.37204798 26.75774222 123.38223755 25.33984375 123.390625 C24.61994263 123.41108887 23.9000415 123.43155273 23.1583252 123.45263672 C17.66965928 123.45637496 14.54281614 122.09506648 10 119 C4.08958681 112.77010502 3.70669461 107.14212505 3.72875977 98.93310547 C3.72353302 97.92282288 3.71830627 96.91254028 3.71292114 95.87164307 C3.70269305 93.682001 3.69690282 91.49233469 3.69503975 89.30266953 C3.69137752 85.84002046 3.6746564 82.37765813 3.65428162 78.91506958 C3.59884208 69.07185176 3.56811995 59.22859242 3.54370117 49.38525391 C3.5278591 43.36235474 3.49768043 37.33966089 3.45893669 31.31686783 C3.44726209 29.01951394 3.44135613 26.72212339 3.44125557 24.42473984 C3.4410643 21.21897565 3.42285677 18.01378148 3.40063477 14.80810547 C3.40521194 13.85426971 3.40978912 12.90043396 3.414505 11.91769409 C3.40485718 11.04572388 3.39520935 10.17375366 3.38526917 9.27536011 C3.38325784 8.51768782 3.38124651 7.76001553 3.37917423 6.97938347 C2.901617 4.48641636 1.83211721 3.68547704 0 2 C0 1.34 0 0.68 0 0 Z " fill="#000000" transform="translate(856,162)"/>
<path d="M0 0 C0 0.66 0 1.32 0 2 C1.0828125 2.3403125 1.0828125 2.3403125 2.1875 2.6875 C5.56432417 4.26335128 7.55767039 6.20876616 10 9 C10 9.66 10 10.32 10 11 C10.66 11 11.32 11 12 11 C20.26882183 22.03277342 22.9043927 34.43410951 22 48 C19.91177759 61.17059958 14.09097898 69.51289993 5 79 C12.35502183 74.72261142 17.54780732 69.47825109 23 63 C32.20118483 52.0860405 42.99813985 41.17599338 57 37 C57.99 37 58.98 37 60 37 C60 43.93 60 50.86 60 58 C57.03 58.99 54.06 59.98 51 61 C48.46899754 62.09527218 46.02132399 63.20439993 43.5625 64.4375 C42.55376831 64.93987183 42.55376831 64.93987183 41.5246582 65.45239258 C35.97145952 68.31092854 30.83793637 71.66414313 25.6875 75.1875 C10.64747978 85.46950875 -4.03948008 90.17438225 -22.3125 90.1875 C-23.19873047 90.19974609 -24.08496094 90.21199219 -24.99804688 90.22460938 C-39.30027962 90.25590529 -51.53384706 86.136483 -62.03515625 76.12890625 C-72.78398421 64.48256183 -75.60065961 51.46601319 -75.3359375 36.1328125 C-74.83301435 24.78171233 -69.40631964 15.4022452 -62 7 C-57.45177665 3 -57.45177665 3 -55 3 C-55 2.34 -55 1.68 -55 1 C-35.83084456 -8.42162509 -19.47234933 -10.13888749 0 0 Z " fill="#F4F4F4" transform="translate(252,183)"/>
<path d="M0 0 C0.85478943 -0.0127597 1.70957886 -0.02551941 2.590271 -0.03866577 C3.96532806 -0.04200424 3.96532806 -0.04200424 5.36816406 -0.04541016 C6.32015686 -0.05206696 7.27214966 -0.05872375 8.25299072 -0.06558228 C10.26694815 -0.0757009 12.28093905 -0.08039954 14.29492188 -0.08007812 C17.35896952 -0.08443735 20.42156 -0.12072682 23.48535156 -0.15869141 C25.44628416 -0.1645627 27.40722357 -0.16853 29.36816406 -0.17041016 C30.27677185 -0.18478119 31.18537964 -0.19915222 32.121521 -0.21395874 C38.11915035 -0.17141199 42.61268279 0.9166854 47.63378906 4.29052734 C49.47363281 6.29052734 49.47363281 6.29052734 50.57128906 8.29052734 C50.9515625 8.95052734 51.33183594 9.61052734 51.72363281 10.29052734 C53.31980287 13.79799117 53.76265709 17.0060651 53.81079102 20.84033203 C53.83004387 22.18257843 53.83004387 22.18257843 53.84968567 23.55194092 C53.8570726 24.51239319 53.86445953 25.47284546 53.87207031 26.46240234 C53.88014206 27.45878723 53.88821381 28.45517212 53.89653015 29.48175049 C53.91035025 31.58986685 53.92108166 33.69800539 53.92895508 35.80615234 C53.94047305 37.95530787 53.96092183 40.10443483 53.99047852 42.25341797 C54.03326916 45.36494313 54.04934057 48.47561901 54.05957031 51.58740234 C54.0770784 52.53975769 54.09458649 53.49211304 54.11262512 54.47332764 C54.08968413 61.58906273 52.5566865 66.91252965 47.85253906 72.34912109 C47.28535156 72.80416016 46.71816406 73.25919922 46.13378906 73.72802734 C45.28300781 74.43765625 45.28300781 74.43765625 44.41503906 75.16162109 C40.28421906 77.77961886 35.76487666 77.42307698 31.02441406 77.38818359 C30.29760437 77.38676865 29.57079468 77.3853537 28.82196045 77.38389587 C26.50919412 77.37831526 24.19652594 77.36576638 21.88378906 77.35302734 C20.31217588 77.34800984 18.74056118 77.34344737 17.16894531 77.33935547 C13.32382534 77.32920468 9.47891658 77.30962566 5.63378906 77.29052734 C5.63378906 84.22052734 5.63378906 91.15052734 5.63378906 98.29052734 C21.14378906 98.29052734 36.65378906 98.29052734 52.63378906 98.29052734 C52.63378906 112.73497179 52.63378906 112.73497179 49.50878906 117.60693359 C43.53332074 122.97240619 37.25768459 123.89186977 29.47363281 123.82177734 C28.52492813 123.82560425 27.57622345 123.82943115 26.59877014 123.83337402 C24.60449149 123.83608173 22.61017662 123.82880099 20.6159668 123.81201172 C17.57617607 123.79056183 14.53874209 123.81186468 11.49902344 123.83740234 C9.55305472 123.83475933 7.60708746 123.8296349 5.66113281 123.82177734 C4.30930153 123.83392273 4.30930153 123.83392273 2.93016052 123.84631348 C-3.00970887 123.75867371 -6.48400723 122.71885257 -11.36621094 119.29052734 C-17.0133831 113.33810263 -17.66503996 107.98572496 -17.65673828 100.12915039 C-17.66345551 99.2146814 -17.67017273 98.3002124 -17.67709351 97.35803223 C-17.69606789 94.33938134 -17.69999753 91.32095289 -17.70214844 88.30224609 C-17.7085771 86.19863291 -17.71530551 84.09502062 -17.72232056 81.9914093 C-17.73429218 77.58238655 -17.73800153 73.17344215 -17.73681641 68.7644043 C-17.73661331 63.12536263 -17.76390693 57.48682544 -17.79836082 51.84790325 C-17.8206414 47.50262665 -17.82465357 43.15747119 -17.82359695 38.81214333 C-17.82595149 36.73379593 -17.83476664 34.65544513 -17.85026169 32.57715416 C-17.86994332 29.66444358 -17.86407473 26.75281739 -17.85205078 23.84008789 C-17.86328979 22.98838516 -17.87452881 22.13668243 -17.8861084 21.25917053 C-17.82582948 15.48838718 -16.59804946 11.11809862 -13.36621094 6.29052734 C-9.34388351 2.46931629 -5.60471544 0.05707403 0 0 Z " fill="#020202" transform="translate(406.3662109375,161.70947265625)"/>
<path d="M0 0 C1.28229744 -0.02409439 1.28229744 -0.02409439 2.59049988 -0.04867554 C6.50465942 -0.09335943 10.41865242 -0.13420643 14.33300781 -0.15722656 C16.39204229 -0.17375718 18.45102007 -0.20100879 20.50976562 -0.23925781 C23.48898891 -0.29428241 26.46686883 -0.3159414 29.4465332 -0.33056641 C30.35827805 -0.35323578 31.27002289 -0.37590515 32.20939636 -0.39926147 C38.58124683 -0.37840291 42.96329164 0.86836796 47.74731445 5.19287109 C53.2218843 11.08470853 53.48616183 17.09679473 53.41137695 24.84912109 C53.41616058 25.95082642 53.42094421 27.05253174 53.4258728 28.18762207 C53.42926168 30.50725744 53.42013062 32.82694123 53.39916992 35.14648438 C53.37239247 38.68256856 53.39895504 42.21547855 53.4309082 45.75146484 C53.42760393 48.01319055 53.42119734 50.27491429 53.41137695 52.53662109 C53.42655869 54.11038513 53.42655869 54.11038513 53.44204712 55.71594238 C53.32106843 63.35066409 51.54736342 68.38460461 46.11734009 73.82637024 C39.70094916 79.37535342 29.68162379 77.71550421 21.74731445 77.50537109 C20.09760865 77.48025772 18.44786605 77.4574499 16.7980957 77.43701172 C12.77951014 77.38652698 8.76608729 77.28865752 4.74731445 77.19287109 C4.74731445 84.12287109 4.74731445 91.05287109 4.74731445 98.19287109 C20.58731445 98.19287109 36.42731445 98.19287109 52.74731445 98.19287109 C52.74731445 112.03497636 52.74731445 112.03497636 48.74731445 117.19287109 C44.6614965 121.27868905 41.1926998 123.29589347 35.37109375 123.36987305 C34.04908211 123.3891259 34.04908211 123.3891259 32.70036316 123.4087677 C31.75034927 123.41615463 30.80033539 123.42354156 29.8215332 123.43115234 C28.84118607 123.43922409 27.86083893 123.44729584 26.8507843 123.45561218 C24.77537805 123.46944389 22.69994915 123.48017013 20.62451172 123.48803711 C17.45732338 123.50524877 14.2911793 123.54914333 11.12426758 123.59326172 C9.10669712 123.60338909 7.0891178 123.61190505 5.0715332 123.61865234 C4.12759201 123.63616043 3.18365082 123.65366852 2.21110535 123.67170715 C-4.59495819 123.6493546 -7.96679178 122.38510518 -12.8972168 117.59521484 C-15.9665256 113.74574728 -17.37047323 111.04842392 -17.39985657 106.15202332 C-17.40701187 105.33198318 -17.41416718 104.51194305 -17.42153931 103.66705322 C-17.42422821 102.77089294 -17.42691711 101.87473267 -17.4296875 100.95141602 C-17.4362587 100.00476578 -17.4428299 99.05811554 -17.44960022 98.08277893 C-17.4693303 94.94629845 -17.48099461 91.80986582 -17.4909668 88.67333984 C-17.49504232 87.60238886 -17.49911785 86.53143787 -17.50331688 85.42803383 C-17.52417541 79.76069964 -17.53847864 74.09338966 -17.54785156 68.42602539 C-17.55892134 62.57153329 -17.5933287 56.71742071 -17.63302326 50.86306286 C-17.65916112 46.36175324 -17.66754085 41.86053449 -17.67113304 37.35915565 C-17.67600554 35.20099636 -17.68763832 33.04284131 -17.70617104 30.88475609 C-17.73050393 27.86370063 -17.72960805 24.84363311 -17.72265625 21.82250977 C-17.73546631 20.93242218 -17.74827637 20.04233459 -17.76147461 19.12527466 C-17.7085651 12.81239145 -16.14755103 9.1726715 -11.6550293 4.54833984 C-7.72375102 1.41380063 -4.98608548 0.08539913 0 0 Z " fill="#010101" transform="translate(558.252685546875,161.80712890625)"/>
<path d="M0 0 C0.920728 0.00007553 1.84145599 0.00015106 2.79008484 0.00022888 C4.27614983 0.00797081 4.27614983 0.00797081 5.79223633 0.01586914 C6.80900955 0.01728409 7.82578278 0.01869904 8.87336731 0.02015686 C12.12369721 0.02575832 15.37395846 0.03831107 18.62426758 0.05102539 C20.82674054 0.0560402 23.02921459 0.06060314 25.23168945 0.06469727 C30.63342995 0.0748777 36.03502183 0.09445293 41.43676758 0.11352539 C41.43676758 8.69352539 41.43676758 17.27352539 41.43676758 26.11352539 C27.24676758 26.44352539 13.05676758 26.77352539 -1.56323242 27.11352539 C0.41676758 28.43352539 2.39676758 29.75352539 4.43676758 31.11352539 C5.15829468 33.15106201 5.15829468 33.15106201 5.11791992 35.33129883 C5.11746674 36.15184753 5.11701355 36.97239624 5.11654663 37.81781006 C5.08557892 38.69398987 5.05461121 39.57016968 5.02270508 40.47290039 C5.01421539 41.37727844 5.00572571 42.28165649 4.99697876 43.21343994 C4.96342843 46.09802096 4.88814833 48.9797916 4.81176758 51.86352539 C4.78166998 53.82051623 4.75429382 55.77755094 4.72973633 57.73461914 C4.66873228 62.52953755 4.55134155 67.31839248 4.43676758 72.11352539 C13.01676758 72.11352539 21.59676758 72.11352539 30.43676758 72.11352539 C30.43676758 80.69352539 30.43676758 89.27352539 30.43676758 98.11352539 C14.59676758 98.60852539 14.59676758 98.60852539 -1.56323242 99.11352539 C0.41676758 100.76352539 2.39676758 102.41352539 4.43676758 104.11352539 C5.17505455 106.18118 5.17505455 106.18118 5.15829468 108.24543762 C5.16654266 109.03482727 5.17479065 109.82421692 5.18328857 110.63752747 C5.16171692 111.48916977 5.14014526 112.34081207 5.11791992 113.21826172 C5.11879608 114.12607391 5.11967224 115.03388611 5.12057495 115.96920776 C5.11640324 118.9622072 5.06977093 121.95295004 5.02270508 124.94555664 C5.01151146 127.02348099 5.00297206 129.10142121 4.99697876 131.17936707 C4.97409367 136.64272956 4.91517232 142.10513164 4.84875488 147.56811523 C4.78732597 153.14496875 4.75996239 158.72197779 4.72973633 164.29907227 C4.66542909 175.2377127 4.55990568 186.17538885 4.43676758 197.11352539 C-3.15323242 197.11352539 -10.74323242 197.11352539 -18.56323242 197.11352539 C-18.67904212 173.40877738 -18.76823864 149.70409766 -18.82229328 125.99912357 C-18.84806039 114.99215621 -18.88318253 103.98536799 -18.94042969 92.97851562 C-18.99031018 83.38346006 -19.02253429 73.78853426 -19.0336749 64.19335264 C-19.04018574 59.11405492 -19.05545719 54.03512839 -19.09188271 48.95594978 C-19.12591548 44.17148167 -19.13627066 39.38753634 -19.12877083 34.60295868 C-19.13014212 32.8506352 -19.1400312 31.09829357 -19.1592598 29.34607506 C-19.34269542 11.76230104 -19.34269542 11.76230104 -13.56323242 5.11352539 C-9.48839781 1.48955947 -5.41481165 -0.0148351 0 0 Z " fill="#040404" transform="translate(818.563232421875,88.886474609375)"/>
<path d="M0 0 C7.81515187 -0.09299735 15.63017223 -0.16391473 23.44573975 -0.20724869 C27.07551731 -0.22805515 30.70491415 -0.25624354 34.33447266 -0.30175781 C37.84231263 -0.34546659 41.3497882 -0.36918921 44.85787964 -0.37950897 C46.83644644 -0.39041254 48.81486821 -0.42159835 50.79321289 -0.45318604 C57.68850971 -0.45489268 63.46096798 -0.42299799 69 4 C74.20174625 9.91395856 74.70349712 15.47008756 74.56762695 23.09765625 C74.56835709 24.18147079 74.56908722 25.26528534 74.56983948 26.38194275 C74.56637295 29.94264837 74.52755349 33.5020246 74.48828125 37.0625 C74.47894987 39.53970627 74.47183529 42.01692181 74.46684265 44.49414062 C74.44779884 50.99792179 74.39871934 57.50114013 74.34332275 64.00469971 C74.29207444 70.64759745 74.26931669 77.29055041 74.24414062 83.93359375 C74.19059893 96.95601559 74.10268321 109.97787282 74 123 C66.74 123 59.48 123 52 123 C52 90.66 52 58.32 52 25 C36.16 25.495 36.16 25.495 20 26 C21.98 27.32 23.96 28.64 26 30 C26.73828697 31.94460678 26.73828697 31.94460678 26.7215271 34.01165771 C26.72977509 34.7996727 26.73802307 35.58768768 26.746521 36.39958191 C26.72494934 37.25481949 26.70337769 38.11005707 26.68115234 38.99121094 C26.6820285 39.89887711 26.68290466 40.80654327 26.68380737 41.74171448 C26.67962906 44.74014527 26.63296553 47.73633539 26.5859375 50.734375 C26.57474623 52.81372861 26.56620572 54.89309805 26.56021118 56.97247314 C26.53730759 62.44406859 26.47837034 67.91470762 26.4119873 73.38592529 C26.35059825 78.96939149 26.32320333 84.55301231 26.29296875 90.13671875 C26.22862888 101.09163356 26.12309038 112.0455876 26 123 C18.74 123 11.48 123 4 123 C3.98541748 119.45161377 3.97083496 115.90322754 3.95581055 112.24731445 C3.90550722 100.53252147 3.83907015 88.8178508 3.76428509 77.10319233 C3.7193312 69.99955542 3.67991567 62.89596861 3.65356445 55.79223633 C3.62812559 48.93865497 3.58721816 42.08530564 3.53681374 35.23186302 C3.52010961 32.61519323 3.50861749 29.99848487 3.50238609 27.38176918 C3.49278387 23.72082711 3.46476966 20.06045955 3.43237305 16.3996582 C3.43380814 15.31424744 3.43524323 14.22883667 3.4367218 13.11053467 C3.39917807 6.06155769 3.39917807 6.06155769 0 0 Z " fill="#000000" transform="translate(617,162)"/>
<path d="M0 0 C8.91 0 17.82 0 27 0 C27.23187012 1.96678711 27.46374023 3.93357422 27.70263672 5.95996094 C28.47458866 12.50205516 29.24920541 19.04382968 30.02558708 25.58539963 C30.49561121 29.54650345 30.96460792 33.50772298 31.43115234 37.46923828 C31.88252093 41.30155217 32.33672441 45.13352091 32.79278946 48.96527863 C32.96518395 50.41777156 33.13660429 51.87038049 33.3069725 53.32311249 C34.31635151 61.92370896 35.47844245 70.47298772 37 79 C39.65706403 58.46679963 42.28778213 37.93171927 44.74316406 17.37329102 C44.89495117 16.10541748 45.04673828 14.83754395 45.203125 13.53125 C45.39890137 11.88479492 45.39890137 11.88479492 45.59863281 10.20507812 C46.025287 6.79807316 46.51441341 3.3991061 47 0 C54.59 0 62.18 0 70 0 C68.31243722 17.58906895 66.25919124 35.09285546 63.91186523 52.60449219 C62.49442236 63.1866483 61.14497023 73.77412675 59.875 84.375 C59.75362167 85.3874025 59.75362167 85.3874025 59.62979126 86.42025757 C59.23762759 89.69241188 58.8458184 92.96460857 58.45410156 96.23681641 C57.33686802 105.49543893 56.16388034 114.74715126 55 124 C42.79 124 30.58 124 18 124 C17.4121875 118.8334375 17.4121875 118.8334375 16.8125 113.5625 C15.37449237 101.02392463 13.8509286 88.49636983 12.30514526 75.97067261 C11.03986959 65.71659544 9.81552515 55.45981793 8.671875 45.19140625 C8.45239571 43.23819037 8.23283274 41.28498389 8.01318359 39.33178711 C7.69601924 36.50964664 7.38172008 33.68736168 7.07745361 30.86380005 C5.9115293 14.70668674 5.9115293 14.70668674 0 0 Z " fill="#030303" transform="translate(463,162)"/>
<path d="M0 0 C7.26 0 14.52 0 22 0 C22 15.18 22 30.36 22 46 C30.25 46 38.5 46 47 46 C47 54.58 47 63.16 47 72 C31.655 72.495 31.655 72.495 16 73 C17.98 74.32 19.96 75.64 22 77 C22.7215271 79.9866333 22.7215271 79.9866333 22.68115234 83.51269531 C22.6820285 84.15701508 22.68290466 84.80133484 22.68380737 85.46517944 C22.67963864 87.58741036 22.63303517 89.70644917 22.5859375 91.828125 C22.57474245 93.3021268 22.56620372 94.77615097 22.56021118 96.25018311 C22.53733603 100.1240029 22.47842752 103.99646608 22.4119873 107.86975098 C22.33972432 112.52010054 22.31225212 117.17090457 22.27726746 121.82165527 C22.2191435 128.88204611 22.10417187 135.93946237 22 143 C33.88 143 45.76 143 58 143 C58 151.58 58 160.16 58 169 C51.87944569 169.09211537 45.76132165 169.17166833 39.640625 169.21972656 C37.56111475 169.23977159 35.48166037 169.26701513 33.40234375 169.30175781 C30.40350513 169.35058948 27.40541537 169.37304028 24.40625 169.390625 C23.48509399 169.41127014 22.56393799 169.43191528 21.61486816 169.45318604 C15.56799362 169.45526134 11.04758876 168.43349653 6 165 C1.14170406 160.01385416 -0.25163044 155.38179441 -0.24050903 148.514328 C-0.24325836 147.2032608 -0.24600769 145.8921936 -0.24884033 144.54139709 C-0.24176289 143.09554962 -0.23449328 141.64970307 -0.22705078 140.20385742 C-0.22648642 138.67604581 -0.22680371 137.14823366 -0.22793579 135.62042236 C-0.22850935 131.47824094 -0.21675455 127.33617547 -0.20278788 123.19402099 C-0.19028103 118.86318408 -0.18911005 114.53234449 -0.18673706 110.20149231 C-0.18052216 102.00283677 -0.1641112 93.8042346 -0.14403808 85.60560256 C-0.1216794 76.27072613 -0.11068573 66.93584714 -0.10064721 57.6009506 C-0.07974499 38.40060264 -0.04416569 19.20030757 0 0 Z " fill="#010101" transform="translate(703,116)"/>
<path d="M0 0 C8.91 0 17.82 0 27 0 C27 40.59 27 81.18 27 123 C19.41 123 11.82 123 4 123 C3.98541748 119.44114014 3.97083496 115.88228027 3.95581055 112.21557617 C3.90554642 100.47682102 3.83911733 88.7381884 3.76428509 76.99956799 C3.71929681 69.88017951 3.67988927 62.76084139 3.65356445 55.64135742 C3.62815931 48.77481717 3.58727524 41.90850977 3.53681374 35.04210854 C3.52008707 32.4182036 3.50860908 29.79425994 3.50238609 27.17030907 C3.49280813 23.50416822 3.46482389 19.83860695 3.43237305 16.17260742 C3.43380814 15.0800061 3.43524323 13.98740479 3.4367218 12.86169434 C3.42418365 11.86470016 3.41164551 10.86770599 3.39872742 9.84049988 C3.39411845 8.97309268 3.38950949 8.10568548 3.38476086 7.21199322 C2.91904444 4.53458583 1.98009096 3.77523202 0 2 C0 1.34 0 0.68 0 0 Z " fill="#0B0B0B" transform="translate(763,162)"/>
<path d="M0 0 C0 6.93 0 13.86 0 21 C-2.97 21.99 -5.94 22.98 -9 24 C-11.53097851 25.09526181 -13.97869361 26.20440683 -16.4375 27.4375 C-17.1070874 27.77096436 -17.7766748 28.10442871 -18.46655273 28.44799805 C-24.90538594 31.76272511 -30.86713345 35.72844901 -36.79663086 39.87475586 C-41.07462759 42.84378785 -45.1352681 45.12698233 -50 47 C-50.66 46.01 -51.32 45.02 -52 44 C-52 44.66 -52 45.32 -52 46 C-53.98 46.66 -55.96 47.32 -58 48 C-57.67 47.01 -57.34 46.02 -57 45 C-58.98 45.495 -58.98 45.495 -61 46 C-57.49371311 42.11803952 -57.49371311 42.11803952 -55.12109375 41.55078125 C-47.39126234 39.54358746 -41.92452846 31.68273864 -37.2265625 25.7578125 C-31.70660706 18.92081506 -25.44811433 13.3729951 -18.4375 8.125 C-17.82438965 7.66029297 -17.2112793 7.19558594 -16.57958984 6.71679688 C-11.60214698 3.09539237 -6.3209013 0 0 0 Z " fill="#E7E7E7" transform="translate(312,220)"/>
<path d="M0 0 C10.89 0 21.78 0 33 0 C33 8.58 33 17.16 33 26 C24.42 26 15.84 26 7 26 C6.875 16.3125 6.875 16.3125 6.88232422 13.28637695 C6.81060052 8.43286772 6.81060052 8.43286772 4.60644531 4.27490234 C2.79121099 2.74245553 2.79121099 2.74245553 0 1 C0 0.67 0 0.34 0 0 Z " fill="#F4F4F4" transform="translate(556,187)"/>
<path d="M0 0 C10.89 0 21.78 0 33 0 C33 8.58 33 17.16 33 26 C24.75 26 16.5 26 8 26 C7.9375 16.3125 7.9375 16.3125 7.97241211 13.28637695 C7.90522387 8.33253994 7.90522387 8.33253994 5.37939453 4.27490234 C3.24794182 2.73330686 3.24794182 2.73330686 0 1 C0 0.67 0 0.34 0 0 Z " fill="#F8F8F8" transform="translate(404,187)"/>
<path d="M0 0 C7.59 0 15.18 0 23 0 C23 8.58 23 17.16 23 26 C15.41 26 7.82 26 0 26 C0 17.42 0 8.84 0 0 Z " fill="#0D0D0D" transform="translate(767,124)"/>
<path d="M0 0 C3.12593081 2.00059572 4.45007648 3.33630732 5.6171875 6.8671875 C6.58074151 11.92092998 5.63614828 15.51854792 3 20 C-0.34124737 22.95939053 -3.53997866 23.59064353 -8.00390625 23.421875 C-12.28603701 22.51684541 -14.89092789 19.56278342 -17.375 16.0625 C-18.25688519 13.15227888 -18.36405994 11.03383286 -18 8 C-13.52291167 -0.02788252 -8.75943397 -1.21658805 0 0 Z " fill="#060606" transform="translate(203,197)"/>
<path d="M0 0 C4.09206332 1.808121 6.69807584 4.16345973 9 8 C9.91825498 14.42778484 9.91825498 14.42778484 7.94140625 17.8125 C5.51965633 20.80195985 3.66157263 22.79414144 -0.20703125 23.2734375 C-7.28722953 23.54942724 -7.28722953 23.54942724 -11 20.6875 C-14.1694648 16.42853167 -15.63180113 14.37030961 -15 9 C-11.18472234 2.05074426 -8.10531718 -0.85319128 0 0 Z " fill="#060606" transform="translate(200,229)"/>
<path d="M0 0 C3.41540567 2.11175753 5.69947914 4.09843742 7 8 C7.39739146 12.21234945 7.24964159 14.5099628 5.3125 18.3125 C1.94192204 22.22965817 -0.40156903 22.79656333 -5.4375 23.4375 C-10.1958924 22.85313602 -11.64663763 21.35336237 -15 18 C-16.85962086 14.28075827 -16.57398707 10.04979769 -16 6 C-13.75 3 -13.75 3 -11 1 C-10.071875 0.319375 -10.071875 0.319375 -9.125 -0.375 C-5.74496055 -1.36912925 -3.39131751 -0.87706487 0 0 Z " fill="#060606" transform="translate(230,181)"/>
<path d="M0 0 C3.214197 1.63631847 5.24693202 2.97308912 7.375 5.875 C8.60515935 10.05754178 8.3301039 13.11393163 6.8125 17.1875 C4.74140328 20.40127078 3.54278538 21.58288585 0 23 C-6.56693369 23.83389634 -6.56693369 23.83389634 -9.8125 21.9453125 C-11.99128992 20.17504569 -13.7363437 18.52731261 -15 16 C-15.44080589 11.6851885 -15.47056025 8.05315866 -13.6875 4.0625 C-9.78752439 -0.70413685 -5.74022982 -0.80324035 0 0 Z " fill="#040404" transform="translate(257,197)"/>
<path d="M0 0 C3.3258409 2.062783 6.23502468 4.47004936 8 8 C8.58029015 15.07953977 8.58029015 15.07953977 6.1875 18.875 C2.89287215 22.07549563 0.72634737 23.33266922 -3.8125 23.5 C-7.48806169 23.40313307 -9.78723102 23.02254229 -12.625 20.625 C-15.51454213 17.15096359 -15.79479883 13.82408013 -15.53515625 9.41015625 C-14.66475002 5.49015157 -12.92193728 3.71322748 -10 1 C-6.7374887 -0.63125565 -3.5120384 -0.68851113 0 0 Z " fill="#030303" transform="translate(257,229)"/>
<path d="M0 0 C3.2702574 2.11109685 6.2424884 4.4849768 8 8 C8.49900681 12.99006811 8.58732748 15.03891867 5.9375 19.375 C2.53262527 22.41765401 0.53030882 23.45323859 -4 24 C-8.52657032 22.61901245 -12.35671439 21.01779413 -15 17 C-15.88027755 12.24468624 -15.44670401 8.87745431 -13.25 4.5625 C-9.25865872 0.01680576 -6.07484023 -0.82370715 0 0 Z " fill="#030303" transform="translate(229,245)"/>
<path d="M0 0 C3.73213978 1.13297101 5.28792812 1.87711649 7.5 5.0625 C8.0625 7.5 8.0625 7.5 7.5 10.0625 C5.00115585 13.36979372 3.55629585 14.86848648 -0.5625 15.625 C-4.20693151 14.92713014 -5.40889337 14.11873277 -7.5 11.0625 C-8.14571405 7.26892998 -7.74722393 5.52728099 -5.9375 2.125 C-3.5 0.0625 -3.5 0.0625 0 0 Z " fill="#070707" transform="translate(225.5,216.9375)"/>
<path d="M0 0 C0 4.29 0 8.58 0 13 C-3.96 14.32 -7.92 15.64 -12 17 C-12 13.04 -12 9.08 -12 5 C-3.375 0 -3.375 0 0 0 Z " fill="#050505" transform="translate(309,225)"/>
<path d="M0 0 C0 3.63 0 7.26 0 11 C-2.97 12.65 -5.94 14.3 -9 16 C-9.70276914 10.29000072 -9.70276914 10.29000072 -9 7 C-3.33152174 0 -3.33152174 0 0 0 Z " fill="#060606" transform="translate(295,232)"/>
<path d="M0 0 C0.33 0 0.66 0 1 0 C1.25 2.75 1.25 2.75 1 6 C-1 8.25 -1 8.25 -3 10 C-3 10.66 -3 11.32 -3 12 C-5.97 13.32 -8.94 14.64 -12 16 C-12.33 14.35 -12.66 12.7 -13 11 C-9.25 8 -9.25 8 -7 8 C-5.22900157 6.21118755 -5.22900157 6.21118755 -3.4375 4 C-2.31064691 2.65058757 -1.16925224 1.31284462 0 0 Z " fill="#E4E4E4" transform="translate(274,251)"/>
<path d="M0 0 C0 2.64 0 5.28 0 8 C-2.31 9.32 -4.62 10.64 -7 12 C-7.375 9.375 -7.375 9.375 -7 6 C-2.5 0 -2.5 0 0 0 Z " fill="#0C0C0C" transform="translate(284,242)"/>
<path d="M0 0 C0.25 2.8125 0.25 2.8125 0 6 C-1.8125 7.875 -1.8125 7.875 -4 9 C-4.99 9 -5.98 9 -7 9 C-6.63229616 5.6906654 -3.81323709 0 0 0 Z " fill="#2D2D2D" transform="translate(275,251)"/>
<path d="M0 0 C2.475 0.99 2.475 0.99 5 2 C5 2.66 5 3.32 5 4 C3.02 4.66 1.04 5.32 -1 6 C-0.67 5.01 -0.34 4.02 0 3 C-1.32 3.33 -2.64 3.66 -4 4 C-2.68 2.68 -1.36 1.36 0 0 Z " fill="#888888" transform="translate(255,262)"/>
<path d="M0 0 C-0.1875 1.875 -0.1875 1.875 -1 4 C-3.5625 5.25 -3.5625 5.25 -6 6 C-6 5.01 -6 4.02 -6 3 C-2.66666667 0 -2.66666667 0 0 0 Z " fill="#353535" transform="translate(267,259)"/>
</svg>
